<svg width="356" height="132" viewBox="0 0 356 132" fill="none" xmlns="http://www.w3.org/2000/svg">
<path d="M128.518 68.297C129.329 68.297 130.054 68.5103 130.694 68.937C131.377 69.3637 131.782 70.1103 131.91 71.177C132.422 74.5477 132.742 77.9183 132.87 81.289C133.041 84.617 133.126 88.393 133.126 92.617C133.126 94.409 132.977 97.673 132.678 102.409C134.555 102.58 136.006 102.665 137.03 102.665C137.755 102.665 139.398 102.558 141.958 102.345C143.451 102.132 144.753 102.025 145.862 102.025C146.886 102.025 147.825 102.132 148.678 102.345C149.531 102.516 150.406 102.814 151.302 103.241C152.198 103.753 152.646 104.542 152.646 105.609C152.646 106.462 152.369 107.23 151.814 107.913C151.302 108.596 150.683 108.937 149.958 108.937C149.446 108.937 148.635 108.852 147.526 108.681C145.521 108.382 143.601 108.233 141.766 108.233C141.169 108.233 140.486 108.276 139.718 108.361C138.993 108.404 138.459 108.425 138.118 108.425C137.094 108.553 136.07 108.617 135.046 108.617C132.955 108.617 131.078 108.51 129.414 108.297C128.561 108.212 127.707 107.892 126.854 107.337C126.001 106.74 125.574 105.886 125.574 104.777C125.574 104.137 125.659 102.494 125.83 99.849C126.129 95.4543 126.278 92.105 126.278 89.801C126.278 88.009 126.193 86.1317 126.022 84.169C125.851 82.2063 125.745 80.969 125.702 80.457C125.318 76.8303 125.126 73.8437 125.126 71.497C125.126 70.3877 125.382 69.577 125.894 69.065C126.449 68.553 127.323 68.297 128.518 68.297ZM162.202 121.993C160.58 121.993 159.215 121.716 158.106 121.161C157.039 120.649 156.228 120.009 155.674 119.241C155.162 118.516 154.906 117.876 154.906 117.321C154.906 116.596 155.162 116.02 155.674 115.593C156.186 115.209 156.804 115.017 157.53 115.017C157.956 115.017 158.362 115.145 158.746 115.401C159.13 115.657 159.343 115.806 159.386 115.849C159.684 116.062 159.983 116.233 160.282 116.361C160.58 116.532 160.9 116.617 161.242 116.617C162.18 116.617 162.948 115.998 163.546 114.761C164.143 113.524 164.74 111.518 165.338 108.745C163.418 105.929 161.818 103.113 160.538 100.297L159.066 96.905C158.852 96.393 158.255 95.0703 157.274 92.937C156.335 90.761 155.396 88.841 154.458 87.177C153.86 85.9823 153.562 85.1717 153.562 84.745C153.562 83.6783 153.924 82.889 154.65 82.377C155.418 81.865 156.292 81.609 157.274 81.609C157.956 81.609 158.468 81.7583 158.81 82.057C159.194 82.313 159.62 82.8037 160.09 83.529C161.327 85.577 162.671 88.649 164.122 92.745C164.975 95.0917 165.658 96.8837 166.17 98.121C166.682 99.3157 167.3 100.532 168.026 101.769C168.751 100.105 169.668 97.2677 170.778 93.257C171.46 90.953 172.015 89.1183 172.442 87.753C172.911 86.345 173.423 85.065 173.978 83.913C174.362 83.145 174.831 82.5263 175.386 82.057C175.983 81.5877 176.644 81.353 177.37 81.353C178.095 81.353 178.863 81.6303 179.674 82.185C180.527 82.697 180.954 83.3157 180.954 84.041C180.954 84.4677 180.804 84.9797 180.506 85.577C178.842 89.417 177.37 93.0437 176.09 96.457C174.852 99.8277 173.658 103.54 172.506 107.593C171.823 109.854 171.098 112.009 170.33 114.057C169.604 116.105 169.092 117.364 168.794 117.833C167.94 119.028 166.98 120.009 165.914 120.777C164.847 121.588 163.61 121.993 162.202 121.993ZM210.57 88.393C210.911 88.9903 211.188 89.865 211.402 91.017C211.615 92.1263 211.722 93.129 211.722 94.025C211.722 95.689 211.359 98.057 210.634 101.129C207.69 106.505 203.338 109.193 197.578 109.193C195.444 109.193 193.268 108.489 191.05 107.081C188.831 105.673 187.295 104.052 186.442 102.217C185.29 98.5477 184.714 96.2223 184.714 95.241C184.714 93.5343 185.076 91.721 185.802 89.801C186.57 87.881 187.53 86.217 188.682 84.809C189.407 83.8277 190.708 82.9957 192.586 82.313C194.463 81.5877 196.17 81.225 197.706 81.225C200.692 81.225 203.231 81.801 205.322 82.953C207.412 84.0623 209.162 85.8757 210.57 88.393ZM205.002 98.697C205.215 98.1423 205.322 96.713 205.322 94.409C205.322 93.1717 205.087 91.9557 204.618 90.761C204.191 89.5663 203.551 88.5423 202.698 87.689C202.612 87.6037 202.378 87.4757 201.994 87.305C201.61 87.0917 201.076 86.8997 200.394 86.729C199.754 86.5157 199.007 86.409 198.154 86.409C195.764 86.409 194.015 87.369 192.906 89.289C191.796 91.209 191.242 93.385 191.242 95.817C191.242 96.2437 191.348 97.0543 191.562 98.249C191.818 99.4437 192.031 100.19 192.202 100.489C192.33 100.788 192.65 101.214 193.162 101.769C193.716 102.281 194.378 102.75 195.146 103.177C195.956 103.561 196.788 103.753 197.642 103.753C199.562 103.753 201.098 103.305 202.25 102.409C203.402 101.47 204.319 100.233 205.002 98.697ZM217.464 86.409C217.122 86.153 216.845 85.897 216.632 85.641C216.418 85.3423 216.312 84.8303 216.312 84.105C216.312 83.2943 216.589 82.6757 217.144 82.249C217.741 81.7797 218.424 81.545 219.192 81.545C220.685 81.545 221.965 81.929 223.032 82.697C224.141 83.465 224.952 84.5317 225.464 85.897C226.402 84.1477 227.597 82.953 229.048 82.313C230.498 81.6303 232.504 81.289 235.064 81.289C236.088 81.289 237.133 81.609 238.2 82.249C239.309 82.8463 240.312 83.593 241.208 84.489C241.933 85.4277 242.552 86.601 243.064 88.009C243.576 89.3743 243.832 90.6117 243.832 91.721C243.832 92.361 243.789 93.4063 243.704 94.857C243.618 96.393 243.576 97.609 243.576 98.505C243.576 101.492 244.152 103.326 245.304 104.009C245.474 104.094 245.794 104.201 246.264 104.329C246.733 104.457 247.074 104.585 247.288 104.713C247.544 104.841 247.672 105.033 247.672 105.289C247.714 106.313 247.33 107.166 246.52 107.849C245.752 108.489 244.813 108.809 243.704 108.809C242.04 108.809 240.738 108.361 239.8 107.465C238.861 106.569 238.2 105.204 237.816 103.369C237.602 102.686 237.496 101.684 237.496 100.361C237.496 99.6357 237.538 98.4623 237.624 96.841C237.752 95.561 237.816 94.1957 237.816 92.745C237.816 91.2517 237.389 89.9503 236.536 88.841C235.682 87.689 234.509 87.113 233.016 87.113C232.12 87.113 231.181 87.3903 230.2 87.945C229.218 88.457 228.536 89.097 228.152 89.865C227.512 91.1877 227.085 92.5317 226.872 93.897C226.36 96.5423 226.104 99.081 226.104 101.513C226.104 102.11 226.146 103.262 226.232 104.969C226.232 105.097 226.232 105.417 226.232 105.929C226.232 106.398 226.168 106.846 226.04 107.273C225.954 107.7 225.784 108.084 225.528 108.425C225.357 108.596 225.037 108.766 224.568 108.937C224.098 109.108 223.693 109.193 223.352 109.193C222.754 109.193 222.008 108.937 221.112 108.425C220.216 107.913 219.682 107.337 219.512 106.697L219.448 105.801C219.448 105.46 219.49 104.948 219.576 104.265C220.088 101.278 220.344 98.6757 220.344 96.457C220.344 95.4757 220.322 94.729 220.28 94.217L220.216 91.273C220.216 90.377 219.96 89.5237 219.448 88.713C218.936 87.8597 218.274 87.0917 217.464 86.409ZM251.461 94.281C251.461 91.6783 252.037 89.5237 253.189 87.817C254.341 86.0677 255.941 84.425 257.989 82.889C258.586 82.4623 259.589 82.0997 260.997 81.801C262.405 81.4597 263.642 81.289 264.709 81.289C265.989 81.289 267.333 81.5663 268.741 82.121C270.191 82.633 271.365 83.2303 272.261 83.913C273.839 85.065 274.927 86.409 275.525 87.945C276.122 89.4383 276.421 91.2303 276.421 93.321C276.421 94.217 275.909 95.0917 274.885 95.945C273.903 96.7557 272.837 97.161 271.685 97.161L269.253 97.097C268.015 97.097 266.245 97.1397 263.941 97.225L262.597 97.289C261.658 97.3743 260.954 97.417 260.485 97.417C259.802 97.417 258.863 97.3317 257.669 97.161C257.839 99.1663 258.586 100.745 259.909 101.897C261.231 103.006 262.661 103.561 264.197 103.561C266.885 103.561 268.762 103.028 269.829 101.961C270.725 101.321 271.322 100.916 271.621 100.745C271.919 100.574 272.389 100.489 273.029 100.489C273.711 100.489 274.309 100.809 274.821 101.449C275.333 102.089 275.589 102.729 275.589 103.369C275.589 104.094 275.141 104.841 274.245 105.609C273.391 106.334 272.218 107.102 270.725 107.913C269.914 108.254 268.805 108.553 267.397 108.809C265.989 109.065 264.815 109.193 263.877 109.193C262.383 109.193 260.719 108.766 258.885 107.913C257.05 107.017 255.685 106.036 254.789 104.969C253.893 103.902 253.103 102.388 252.421 100.425C251.781 98.4623 251.461 96.4143 251.461 94.281ZM264.197 92.553C267.226 92.553 269.445 92.4463 270.853 92.233C270.767 90.9957 270.383 89.993 269.701 89.225C269.018 88.4143 268.079 87.7317 266.885 87.177C266.501 87.0063 266.159 86.8783 265.861 86.793C265.562 86.7077 265.221 86.665 264.837 86.665C262.874 86.665 261.21 87.1983 259.845 88.265C258.522 89.3317 257.733 90.697 257.477 92.361C259.61 92.489 261.85 92.553 264.197 92.553ZM300.652 94.281C302.358 95.2623 303.553 96.2437 304.236 97.225C304.918 98.1637 305.26 99.401 305.26 100.937C305.26 102.473 304.812 103.838 303.916 105.033C303.02 106.185 301.868 107.081 300.46 107.721C299.436 108.19 298.156 108.553 296.62 108.809C295.126 109.065 293.953 109.193 293.1 109.193C291.606 109.193 289.985 108.916 288.236 108.361C286.486 107.806 284.993 107.017 283.756 105.993C282.561 104.969 281.964 103.774 281.964 102.409C281.964 101.556 282.241 100.894 282.796 100.425C283.35 99.913 284.076 99.657 284.972 99.657C285.697 99.657 286.465 100.169 287.276 101.193C288.086 102.089 289.025 102.772 290.092 103.241C291.201 103.71 292.289 103.945 293.356 103.945C297.409 103.945 299.436 103.028 299.436 101.193C299.436 100.809 299.308 100.446 299.052 100.105C298.796 99.721 298.561 99.465 298.348 99.337C297.964 99.0383 297.43 98.7823 296.748 98.569C296.065 98.3557 295.382 98.185 294.7 98.057C294.017 97.8863 293.505 97.7583 293.164 97.673C292.822 97.5877 292.097 97.4383 290.988 97.225C289.921 97.0117 288.897 96.649 287.916 96.137C286.294 95.369 284.972 94.4303 283.948 93.321C282.966 92.2117 282.476 90.7823 282.476 89.033C282.476 88.0517 282.71 87.0703 283.18 86.089C283.692 85.065 284.374 84.297 285.228 83.785C286.508 82.9743 287.916 82.3557 289.452 81.929C290.988 81.5023 292.417 81.289 293.74 81.289C294.806 81.289 296.001 81.3957 297.324 81.609C298.689 81.8223 299.67 82.121 300.268 82.505C301.377 83.1023 302.188 83.721 302.7 84.361C303.212 85.001 303.468 85.8117 303.468 86.793C303.468 87.2623 303.361 87.7317 303.148 88.201C302.934 88.6277 302.678 88.9263 302.38 89.097C301.697 89.353 301.1 89.481 300.588 89.481C300.204 89.481 299.884 89.417 299.628 89.289C299.372 89.1183 299.137 88.9477 298.924 88.777C298.753 88.6063 298.646 88.4997 298.604 88.457C298.049 87.8597 297.43 87.3903 296.748 87.049C296.065 86.7077 295.062 86.537 293.74 86.537C292.886 86.537 292.054 86.665 291.244 86.921C290.476 87.1343 289.878 87.4117 289.452 87.753C289.11 88.009 288.876 88.2437 288.748 88.457C288.62 88.6277 288.556 88.8623 288.556 89.161C288.556 90.3557 289.75 91.2303 292.14 91.785C294.572 92.3397 295.852 92.6383 295.98 92.681C296.236 92.7663 296.94 92.9797 298.092 93.321C299.286 93.6623 300.14 93.9823 300.652 94.281ZM329.208 94.537C329.549 94.7503 330.211 95.1557 331.192 95.753C332.216 96.3077 332.899 96.969 333.24 97.737C333.581 98.505 333.752 99.5717 333.752 100.937C333.752 102.473 333.304 103.838 332.408 105.033C331.512 106.185 330.36 107.081 328.952 107.721C327.928 108.19 326.669 108.553 325.176 108.809C323.725 109.065 322.573 109.193 321.72 109.193C320.867 109.193 319.757 109.065 318.392 108.809C317.069 108.553 316.152 108.318 315.64 108.105C314.317 107.337 313.165 106.398 312.184 105.289C311.245 104.18 310.776 103.049 310.776 101.897C310.776 101.044 311.053 100.382 311.608 99.913C312.163 99.401 312.888 99.145 313.784 99.145C314.211 99.145 314.659 99.3157 315.128 99.657C315.597 99.9557 315.917 100.276 316.088 100.617C316.557 101.726 317.347 102.558 318.456 103.113C319.565 103.668 320.696 103.945 321.848 103.945C323.341 103.945 324.728 103.71 326.008 103.241C327.288 102.729 327.928 102.046 327.928 101.193C327.928 100.809 327.821 100.51 327.608 100.297C327.437 100.041 327.181 99.785 326.84 99.529C326.243 99.1023 325.347 98.761 324.152 98.505C322.957 98.2063 322.189 98.0143 321.848 97.929C320.099 97.545 318.392 96.969 316.728 96.201C315.064 95.3903 313.741 94.4303 312.76 93.321C311.779 92.2117 311.288 90.7823 311.288 89.033C311.288 87.881 311.715 86.6863 312.568 85.449C313.421 84.169 314.381 83.273 315.448 82.761C316.216 82.4623 317.496 82.1423 319.288 81.801C321.123 81.4597 322.36 81.289 323 81.289C323.981 81.289 325.048 81.3957 326.2 81.609C327.352 81.7797 328.227 82.0783 328.824 82.505C329.976 83.1877 330.915 83.913 331.64 84.681C332.365 85.4063 332.728 86.2383 332.728 87.177C332.728 87.6463 332.621 88.1583 332.408 88.713C332.195 89.225 331.939 89.545 331.64 89.673C331 89.9717 330.253 90.121 329.4 90.121C329.016 90.121 328.696 90.0143 328.44 89.801C328.227 89.5877 327.928 89.2463 327.544 88.777C327.075 88.0517 326.627 87.625 326.2 87.497C325.688 87.369 324.941 87.2197 323.96 87.049C322.979 86.8357 322.317 86.729 321.976 86.729C320.995 86.729 319.971 87.0063 318.904 87.561C317.88 88.1157 317.368 88.7557 317.368 89.481C317.368 89.865 317.517 90.1637 317.816 90.377C318.157 90.5903 318.499 90.7823 318.84 90.953C319.224 91.1237 319.48 91.2303 319.608 91.273C320.504 91.6997 321.485 92.0623 322.552 92.361C323.661 92.6597 324.344 92.8517 324.6 92.937C326.904 93.4917 328.44 94.025 329.208 94.537Z" fill="#C1CBBA" fill-opacity="0.69"/>
<path d="M126.475 66.36C127.286 66.36 128.011 66.5733 128.651 67C129.334 67.4267 129.739 68.1733 129.867 69.24C130.379 72.6107 130.699 75.9813 130.827 79.352C130.998 82.68 131.083 86.456 131.083 90.68C131.083 92.472 130.934 95.736 130.635 100.472C132.512 100.643 133.963 100.728 134.987 100.728C135.712 100.728 137.355 100.621 139.915 100.408C141.408 100.195 142.71 100.088 143.819 100.088C144.843 100.088 145.782 100.195 146.635 100.408C147.488 100.579 148.363 100.877 149.259 101.304C150.155 101.816 150.603 102.605 150.603 103.672C150.603 104.525 150.326 105.293 149.771 105.976C149.259 106.659 148.64 107 147.915 107C147.403 107 146.592 106.915 145.483 106.744C143.478 106.445 141.558 106.296 139.723 106.296C139.126 106.296 138.443 106.339 137.675 106.424C136.95 106.467 136.416 106.488 136.075 106.488C135.051 106.616 134.027 106.68 133.003 106.68C130.912 106.68 129.035 106.573 127.371 106.36C126.518 106.275 125.664 105.955 124.811 105.4C123.958 104.803 123.531 103.949 123.531 102.84C123.531 102.2 123.616 100.557 123.787 97.912C124.086 93.5173 124.235 90.168 124.235 87.864C124.235 86.072 124.15 84.1947 123.979 82.232C123.808 80.2693 123.702 79.032 123.659 78.52C123.275 74.8933 123.083 71.9067 123.083 69.56C123.083 68.4507 123.339 67.64 123.851 67.128C124.406 66.616 125.28 66.36 126.475 66.36ZM160.159 120.056C158.537 120.056 157.172 119.779 156.063 119.224C154.996 118.712 154.185 118.072 153.631 117.304C153.119 116.579 152.863 115.939 152.863 115.384C152.863 114.659 153.119 114.083 153.631 113.656C154.143 113.272 154.761 113.08 155.487 113.08C155.913 113.08 156.319 113.208 156.703 113.464C157.087 113.72 157.3 113.869 157.343 113.912C157.641 114.125 157.94 114.296 158.239 114.424C158.537 114.595 158.857 114.68 159.199 114.68C160.137 114.68 160.905 114.061 161.503 112.824C162.1 111.587 162.697 109.581 163.295 106.808C161.375 103.992 159.775 101.176 158.495 98.36L157.023 94.968C156.809 94.456 156.212 93.1333 155.231 91C154.292 88.824 153.353 86.904 152.415 85.24C151.817 84.0453 151.519 83.2347 151.519 82.808C151.519 81.7413 151.881 80.952 152.607 80.44C153.375 79.928 154.249 79.672 155.231 79.672C155.913 79.672 156.425 79.8213 156.767 80.12C157.151 80.376 157.577 80.8667 158.047 81.592C159.284 83.64 160.628 86.712 162.079 90.808C162.932 93.1547 163.615 94.9467 164.127 96.184C164.639 97.3787 165.257 98.5947 165.983 99.832C166.708 98.168 167.625 95.3307 168.735 91.32C169.417 89.016 169.972 87.1813 170.399 85.816C170.868 84.408 171.38 83.128 171.935 81.976C172.319 81.208 172.788 80.5893 173.343 80.12C173.94 79.6507 174.601 79.416 175.327 79.416C176.052 79.416 176.82 79.6933 177.631 80.248C178.484 80.76 178.911 81.3787 178.911 82.104C178.911 82.5307 178.761 83.0427 178.463 83.64C176.799 87.48 175.327 91.1067 174.047 94.52C172.809 97.8907 171.615 101.603 170.463 105.656C169.78 107.917 169.055 110.072 168.287 112.12C167.561 114.168 167.049 115.427 166.751 115.896C165.897 117.091 164.937 118.072 163.871 118.84C162.804 119.651 161.567 120.056 160.159 120.056ZM208.527 86.456C208.868 87.0533 209.145 87.928 209.359 89.08C209.572 90.1893 209.679 91.192 209.679 92.088C209.679 93.752 209.316 96.12 208.591 99.192C205.647 104.568 201.295 107.256 195.535 107.256C193.401 107.256 191.225 106.552 189.007 105.144C186.788 103.736 185.252 102.115 184.399 100.28C183.247 96.6107 182.671 94.2853 182.671 93.304C182.671 91.5973 183.033 89.784 183.759 87.864C184.527 85.944 185.487 84.28 186.639 82.872C187.364 81.8907 188.665 81.0587 190.543 80.376C192.42 79.6507 194.127 79.288 195.663 79.288C198.649 79.288 201.188 79.864 203.279 81.016C205.369 82.1253 207.119 83.9387 208.527 86.456ZM202.959 96.76C203.172 96.2053 203.279 94.776 203.279 92.472C203.279 91.2347 203.044 90.0187 202.575 88.824C202.148 87.6293 201.508 86.6053 200.655 85.752C200.569 85.6667 200.335 85.5387 199.951 85.368C199.567 85.1547 199.033 84.9627 198.351 84.792C197.711 84.5787 196.964 84.472 196.111 84.472C193.721 84.472 191.972 85.432 190.863 87.352C189.753 89.272 189.199 91.448 189.199 93.88C189.199 94.3067 189.305 95.1173 189.519 96.312C189.775 97.5067 189.988 98.2533 190.159 98.552C190.287 98.8507 190.607 99.2773 191.119 99.832C191.673 100.344 192.335 100.813 193.103 101.24C193.913 101.624 194.745 101.816 195.599 101.816C197.519 101.816 199.055 101.368 200.207 100.472C201.359 99.5333 202.276 98.296 202.959 96.76ZM215.421 84.472C215.079 84.216 214.802 83.96 214.589 83.704C214.375 83.4053 214.269 82.8933 214.269 82.168C214.269 81.3573 214.546 80.7387 215.101 80.312C215.698 79.8427 216.381 79.608 217.149 79.608C218.642 79.608 219.922 79.992 220.989 80.76C222.098 81.528 222.909 82.5947 223.421 83.96C224.359 82.2107 225.554 81.016 227.005 80.376C228.455 79.6933 230.461 79.352 233.021 79.352C234.045 79.352 235.09 79.672 236.157 80.312C237.266 80.9093 238.269 81.656 239.165 82.552C239.89 83.4907 240.509 84.664 241.021 86.072C241.533 87.4373 241.789 88.6747 241.789 89.784C241.789 90.424 241.746 91.4693 241.661 92.92C241.575 94.456 241.533 95.672 241.533 96.568C241.533 99.5547 242.109 101.389 243.261 102.072C243.431 102.157 243.751 102.264 244.221 102.392C244.69 102.52 245.031 102.648 245.245 102.776C245.501 102.904 245.629 103.096 245.629 103.352C245.671 104.376 245.287 105.229 244.477 105.912C243.709 106.552 242.77 106.872 241.661 106.872C239.997 106.872 238.695 106.424 237.757 105.528C236.818 104.632 236.157 103.267 235.773 101.432C235.559 100.749 235.453 99.7467 235.453 98.424C235.453 97.6987 235.495 96.5253 235.581 94.904C235.709 93.624 235.773 92.2587 235.773 90.808C235.773 89.3147 235.346 88.0133 234.493 86.904C233.639 85.752 232.466 85.176 230.973 85.176C230.077 85.176 229.138 85.4533 228.157 86.008C227.175 86.52 226.493 87.16 226.109 87.928C225.469 89.2507 225.042 90.5947 224.829 91.96C224.317 94.6053 224.061 97.144 224.061 99.576C224.061 100.173 224.103 101.325 224.189 103.032C224.189 103.16 224.189 103.48 224.189 103.992C224.189 104.461 224.125 104.909 223.997 105.336C223.911 105.763 223.741 106.147 223.485 106.488C223.314 106.659 222.994 106.829 222.525 107C222.055 107.171 221.65 107.256 221.309 107.256C220.711 107.256 219.965 107 219.069 106.488C218.173 105.976 217.639 105.4 217.469 104.76L217.405 103.864C217.405 103.523 217.447 103.011 217.533 102.328C218.045 99.3413 218.301 96.7387 218.301 94.52C218.301 93.5387 218.279 92.792 218.237 92.28L218.173 89.336C218.173 88.44 217.917 87.5867 217.405 86.776C216.893 85.9227 216.231 85.1547 215.421 84.472ZM249.418 92.344C249.418 89.7413 249.994 87.5867 251.146 85.88C252.298 84.1307 253.898 82.488 255.946 80.952C256.543 80.5253 257.546 80.1627 258.954 79.864C260.362 79.5227 261.599 79.352 262.666 79.352C263.946 79.352 265.29 79.6293 266.698 80.184C268.148 80.696 269.322 81.2933 270.218 81.976C271.796 83.128 272.884 84.472 273.482 86.008C274.079 87.5013 274.378 89.2933 274.378 91.384C274.378 92.28 273.866 93.1547 272.842 94.008C271.86 94.8187 270.794 95.224 269.642 95.224L267.21 95.16C265.972 95.16 264.202 95.2027 261.898 95.288L260.554 95.352C259.615 95.4373 258.911 95.48 258.442 95.48C257.759 95.48 256.82 95.3947 255.626 95.224C255.796 97.2293 256.543 98.808 257.866 99.96C259.188 101.069 260.618 101.624 262.154 101.624C264.842 101.624 266.719 101.091 267.786 100.024C268.682 99.384 269.279 98.9787 269.578 98.808C269.876 98.6373 270.346 98.552 270.986 98.552C271.668 98.552 272.266 98.872 272.778 99.512C273.29 100.152 273.546 100.792 273.546 101.432C273.546 102.157 273.098 102.904 272.202 103.672C271.348 104.397 270.175 105.165 268.682 105.976C267.871 106.317 266.762 106.616 265.354 106.872C263.946 107.128 262.772 107.256 261.834 107.256C260.34 107.256 258.676 106.829 256.842 105.976C255.007 105.08 253.642 104.099 252.746 103.032C251.85 101.965 251.06 100.451 250.378 98.488C249.738 96.5253 249.418 94.4773 249.418 92.344ZM262.154 90.616C265.183 90.616 267.402 90.5093 268.81 90.296C268.724 89.0587 268.34 88.056 267.658 87.288C266.975 86.4773 266.036 85.7947 264.842 85.24C264.458 85.0693 264.116 84.9413 263.818 84.856C263.519 84.7707 263.178 84.728 262.794 84.728C260.831 84.728 259.167 85.2613 257.802 86.328C256.479 87.3947 255.69 88.76 255.434 90.424C257.567 90.552 259.807 90.616 262.154 90.616ZM298.609 92.344C300.315 93.3253 301.51 94.3067 302.193 95.288C302.875 96.2267 303.217 97.464 303.217 99C303.217 100.536 302.769 101.901 301.873 103.096C300.977 104.248 299.825 105.144 298.417 105.784C297.393 106.253 296.113 106.616 294.577 106.872C293.083 107.128 291.91 107.256 291.057 107.256C289.563 107.256 287.942 106.979 286.193 106.424C284.443 105.869 282.95 105.08 281.713 104.056C280.518 103.032 279.921 101.837 279.921 100.472C279.921 99.6187 280.198 98.9573 280.753 98.488C281.307 97.976 282.033 97.72 282.929 97.72C283.654 97.72 284.422 98.232 285.233 99.256C286.043 100.152 286.982 100.835 288.049 101.304C289.158 101.773 290.246 102.008 291.313 102.008C295.366 102.008 297.393 101.091 297.393 99.256C297.393 98.872 297.265 98.5093 297.009 98.168C296.753 97.784 296.518 97.528 296.305 97.4C295.921 97.1013 295.387 96.8453 294.705 96.632C294.022 96.4187 293.339 96.248 292.657 96.12C291.974 95.9493 291.462 95.8213 291.121 95.736C290.779 95.6507 290.054 95.5013 288.945 95.288C287.878 95.0747 286.854 94.712 285.873 94.2C284.251 93.432 282.929 92.4933 281.905 91.384C280.923 90.2747 280.433 88.8453 280.433 87.096C280.433 86.1147 280.667 85.1333 281.137 84.152C281.649 83.128 282.331 82.36 283.185 81.848C284.465 81.0373 285.873 80.4187 287.409 79.992C288.945 79.5653 290.374 79.352 291.697 79.352C292.763 79.352 293.958 79.4587 295.281 79.672C296.646 79.8853 297.627 80.184 298.225 80.568C299.334 81.1653 300.145 81.784 300.657 82.424C301.169 83.064 301.425 83.8747 301.425 84.856C301.425 85.3253 301.318 85.7947 301.105 86.264C300.891 86.6907 300.635 86.9893 300.337 87.16C299.654 87.416 299.057 87.544 298.545 87.544C298.161 87.544 297.841 87.48 297.585 87.352C297.329 87.1813 297.094 87.0107 296.881 86.84C296.71 86.6693 296.603 86.5627 296.561 86.52C296.006 85.9227 295.387 85.4533 294.705 85.112C294.022 84.7707 293.019 84.6 291.697 84.6C290.843 84.6 290.011 84.728 289.201 84.984C288.433 85.1973 287.835 85.4747 287.409 85.816C287.067 86.072 286.833 86.3067 286.705 86.52C286.577 86.6907 286.513 86.9253 286.513 87.224C286.513 88.4187 287.707 89.2933 290.097 89.848C292.529 90.4027 293.809 90.7013 293.937 90.744C294.193 90.8293 294.897 91.0427 296.049 91.384C297.243 91.7253 298.097 92.0453 298.609 92.344ZM327.165 92.6C327.506 92.8133 328.168 93.2187 329.149 93.816C330.173 94.3707 330.856 95.032 331.197 95.8C331.538 96.568 331.709 97.6347 331.709 99C331.709 100.536 331.261 101.901 330.365 103.096C329.469 104.248 328.317 105.144 326.909 105.784C325.885 106.253 324.626 106.616 323.133 106.872C321.682 107.128 320.53 107.256 319.677 107.256C318.824 107.256 317.714 107.128 316.349 106.872C315.026 106.616 314.109 106.381 313.597 106.168C312.274 105.4 311.122 104.461 310.141 103.352C309.202 102.243 308.733 101.112 308.733 99.96C308.733 99.1067 309.01 98.4453 309.565 97.976C310.12 97.464 310.845 97.208 311.741 97.208C312.168 97.208 312.616 97.3787 313.085 97.72C313.554 98.0187 313.874 98.3387 314.045 98.68C314.514 99.7893 315.304 100.621 316.413 101.176C317.522 101.731 318.653 102.008 319.805 102.008C321.298 102.008 322.685 101.773 323.965 101.304C325.245 100.792 325.885 100.109 325.885 99.256C325.885 98.872 325.778 98.5733 325.565 98.36C325.394 98.104 325.138 97.848 324.797 97.592C324.2 97.1653 323.304 96.824 322.109 96.568C320.914 96.2693 320.146 96.0773 319.805 95.992C318.056 95.608 316.349 95.032 314.685 94.264C313.021 93.4533 311.698 92.4933 310.717 91.384C309.736 90.2747 309.245 88.8453 309.245 87.096C309.245 85.944 309.672 84.7493 310.525 83.512C311.378 82.232 312.338 81.336 313.405 80.824C314.173 80.5253 315.453 80.2053 317.245 79.864C319.08 79.5227 320.317 79.352 320.957 79.352C321.938 79.352 323.005 79.4587 324.157 79.672C325.309 79.8427 326.184 80.1413 326.781 80.568C327.933 81.2507 328.872 81.976 329.597 82.744C330.322 83.4693 330.685 84.3013 330.685 85.24C330.685 85.7093 330.578 86.2213 330.365 86.776C330.152 87.288 329.896 87.608 329.597 87.736C328.957 88.0347 328.21 88.184 327.357 88.184C326.973 88.184 326.653 88.0773 326.397 87.864C326.184 87.6507 325.885 87.3093 325.501 86.84C325.032 86.1147 324.584 85.688 324.157 85.56C323.645 85.432 322.898 85.2827 321.917 85.112C320.936 84.8987 320.274 84.792 319.933 84.792C318.952 84.792 317.928 85.0693 316.861 85.624C315.837 86.1787 315.325 86.8187 315.325 87.544C315.325 87.928 315.474 88.2267 315.773 88.44C316.114 88.6533 316.456 88.8453 316.797 89.016C317.181 89.1867 317.437 89.2933 317.565 89.336C318.461 89.7627 319.442 90.1253 320.509 90.424C321.618 90.7227 322.301 90.9147 322.557 91C324.861 91.5547 326.397 92.088 327.165 92.6Z" fill="#C1CBBA"/>
<g filter="url(#filter0_d_1_2168)">
<path d="M62.7734 51.6556L77.135 14.2415L111.186 3.24316L134.581 9.84938L128.79 45.1697L106.553 64.3957L87.5587 71.1132L97.0559 100.531L81.0729 123L68.1011 111.882L62.7734 90.1076V51.6556Z" fill="#C1CBBA"/>
<path d="M65.0903 51.566L78.5915 16.9226L110.319 7.4126L128.096 12.8469L124.271 44.3203L104.244 61.3024L83.6146 69.41L93.8929 99.1158L81.0668 118.136L70.2658 108.852L65.0903 88.9266V51.566Z" fill="#EDD5DB"/>
<path d="M12.624 76.7895C13.436 72.7297 12.5062 68.5156 10.0614 65.1743L9.02477 63.7576C3.77009 56.5762 4.28511 46.6909 10.2576 40.0944L11.496 38.7266C14.1212 35.8271 15.8422 32.2239 16.4475 28.3596L16.8451 25.821C17.865 19.3093 22.8189 14.0356 29.2308 12.5089C31.7623 11.9062 34.1407 10.6744 36.0818 8.94125L38.9017 6.42353C43.0432 2.72577 49.2608 2.59506 53.554 6.11551C56.1645 8.25616 57.678 11.4544 57.678 14.8304V118.793C57.678 119.836 57.1811 120.816 56.3401 121.433C55.0941 122.347 53.3789 122.265 52.2254 121.237L46.5551 116.183C44.5987 114.439 42.1494 113.346 39.5451 113.053L31.1882 112.114C26.7366 111.614 23.6552 107.427 24.5011 103.028C24.9701 100.589 24.2313 98.0739 22.5178 96.2762L16.4146 89.8728C13.0948 86.3898 11.6804 81.5077 12.624 76.7895Z" fill="#E9DFA0"/>
<path d="M35.2501 92.7705C34.4573 92.9867 33.7952 92.1422 34.1943 91.4239L36.4103 87.4349C36.5353 87.2101 36.6292 86.9694 36.6895 86.7193L37.2802 84.2721C37.8492 81.9149 36.9434 79.4469 34.9845 78.0175L29.8901 74.3C29.73 74.1831 29.5805 74.0523 29.4436 73.9089L21.9743 66.0922C21.4036 65.495 22.0263 64.5354 22.8042 64.8132C22.8887 64.8434 22.9674 64.8878 23.0368 64.9446L29.9587 70.608C30.3684 70.9432 30.8207 71.2227 31.3038 71.4393L36.8472 73.9243C37.1442 74.0574 37.4516 74.1662 37.7662 74.2495L42.3976 75.4754C44.1504 75.9394 46.019 75.5859 47.4812 74.5136L47.773 74.2997C48.3489 73.8773 48.8448 73.3556 49.2373 72.7589L53.866 65.7233C54.2285 65.1723 54.3437 64.4947 54.1837 63.8548L52.498 57.1118C52.3913 56.6852 52.9142 56.3891 53.2252 56.7001C53.2592 56.7341 53.2873 56.7735 53.3084 56.8168L57.0716 64.5413C57.4704 65.3599 57.6777 66.2586 57.6777 67.1691V78.2938C57.6777 78.742 57.0602 78.863 56.8911 78.4479L55.5212 75.0854C55.3003 74.5432 54.699 74.2627 54.1417 74.4419L51.4991 75.2913C49.7976 75.8382 48.6438 77.421 48.6438 79.2083V81.4862C48.6438 81.6727 48.6786 81.8575 48.7466 82.0312L49.7661 84.6366C50.0351 85.3239 49.2264 85.9278 48.6438 85.4746L43.6867 81.7684C42.8881 81.0424 41.6281 81.2112 41.0486 82.1217L39.0988 85.1857C38.9764 85.3781 38.8678 85.5789 38.774 85.7868L35.852 92.2569C35.738 92.5093 35.5173 92.6976 35.2501 92.7705Z" fill="#BBA674"/>
<path d="M33.5597 12.2853C33.1843 11.6284 33.3883 10.7886 34.0178 10.3689C34.827 9.82941 35.937 10.2347 36.1929 11.173C36.3037 11.5791 36.5883 11.9155 36.9705 12.0919L38.3968 12.7502C39.0434 13.0486 39.6155 13.4873 40.0714 14.0344L40.7012 14.7901C41.3592 15.5798 41.8797 16.4747 42.2406 17.4372L42.5527 18.2694C42.9067 19.2134 43.1606 20.192 43.3101 21.1891L43.4885 22.378C43.6826 23.6722 43.9749 24.9498 44.3628 26.1997L47.8701 37.501C47.9211 37.6654 47.9066 37.8431 47.8296 37.9971C47.5526 38.5511 46.7358 38.4615 46.5856 37.8605L45.044 31.694C44.9739 31.4136 44.8639 31.1448 44.7173 30.8957L43.5792 28.9608C42.9426 27.8787 42.4175 26.7348 42.0118 25.5466L40.1491 20.0917C39.6556 18.6464 38.6132 17.4534 37.2472 16.7704L36.9001 16.5968C36.0998 16.1967 35.4358 15.5686 34.9919 14.7917L33.5597 12.2853Z" fill="#BBA674"/>
<path d="M14.036 35.6527C13.6662 34.8392 14.3173 33.9308 15.2066 34.0197C15.4112 34.0402 15.6067 34.1147 15.773 34.2357L16.9277 35.0755C17.6784 35.6214 18.5383 35.9983 19.4485 36.1804L23.0829 36.9073C23.5951 37.0097 24.0835 37.2073 24.5229 37.4897L25.2223 37.9393C26.3405 38.6581 26.8631 40.0192 26.5133 41.3017L26.4254 41.6238C26.4126 41.6711 26.406 41.7199 26.406 41.7688C26.406 42.3786 25.5623 42.5369 25.3413 41.9686L24.8824 40.7884C24.819 40.6253 24.7031 40.488 24.5531 40.398L23.1336 39.5463C22.6921 39.2814 22.2163 39.0783 21.7195 38.9428L17.9577 37.9169C17.568 37.8106 17.1878 37.6721 16.821 37.5028L14.8087 36.5741C14.5198 36.4407 14.2884 36.208 14.1567 35.9183L14.036 35.6527Z" fill="#BBA674"/>
<path d="M41.8355 105.559C42.965 105.354 43.6292 104.172 43.2171 103.1L43.0492 102.664C42.92 102.328 42.8745 101.966 42.9165 101.608L43.3028 98.3251C43.3114 98.2519 43.3305 98.1803 43.3595 98.1126C43.6167 97.5127 44.458 97.488 44.75 98.0718L45.0711 98.7142C45.1357 98.8432 45.1742 98.9837 45.1845 99.1276L45.2782 100.44C45.3575 101.55 45.8047 102.602 46.549 103.429L47.4853 104.469L49.7297 106.526C50.0847 106.852 50.3908 107.227 50.6385 107.64L51.3286 108.79C51.5451 109.151 51.7133 109.538 51.8289 109.943C52.0194 110.61 52.0634 111.31 51.958 111.995L51.6649 113.9C51.6583 113.943 51.6382 113.983 51.6076 114.013C51.5139 114.107 51.3571 114.088 51.2889 113.974L50.7767 113.12C50.7445 113.067 50.7174 113.01 50.696 112.951L50.007 111.056C49.8706 110.681 49.6897 110.324 49.4683 109.992L48.9313 109.186C48.299 108.238 47.3357 107.559 46.2297 107.282C45.5323 107.108 44.8036 107.1 44.1026 107.259L40.6415 108.046C40.3022 108.123 39.9518 107.973 39.7728 107.675C39.5518 107.307 39.659 106.83 40.0166 106.591L41.1474 105.837C41.3554 105.699 41.5896 105.604 41.8355 105.559Z" fill="#BBA674"/>
</g>
<defs>
<filter id="filter0_d_1_2168" x="5.40527" y="3.24316" width="134.176" height="124.757" filterUnits="userSpaceOnUse" color-interpolation-filters="sRGB">
<feFlood flood-opacity="0" result="BackgroundImageFix"/>
<feColorMatrix in="SourceAlpha" type="matrix" values="0 0 0 0 0 0 0 0 0 0 0 0 0 0 0 0 0 0 127 0" result="hardAlpha"/>
<feOffset dx="4" dy="4"/>
<feGaussianBlur stdDeviation="0.5"/>
<feComposite in2="hardAlpha" operator="out"/>
<feColorMatrix type="matrix" values="0 0 0 0 0 0 0 0 0 0 0 0 0 0 0 0 0 0 0.25 0"/>
<feBlend mode="normal" in2="BackgroundImageFix" result="effect1_dropShadow_1_2168"/>
<feBlend mode="normal" in="SourceGraphic" in2="effect1_dropShadow_1_2168" result="shape"/>
</filter>
</defs>
</svg>
