<svg width="1920" height="1229" viewBox="0 0 1920 1229" fill="none" xmlns="http://www.w3.org/2000/svg">
<g filter="url(#filter0_d_1_2209)">
<g filter="url(#filter1_f_1_2209)">
<path fill-rule="evenodd" clip-rule="evenodd" d="M-16 556.051C-105.573 557.677 -177.101 597.705 -179.525 649.985C-180.707 675.467 -165.269 699.469 -138.819 718.465C-166.91 748.691 -184 788.66 -184 832.487C-184 907.214 -134.317 970.725 -65.135 993.846C-42.6689 1102.64 44.0945 1183.71 147.701 1183.71C203.288 1183.71 254.027 1160.38 292.589 1121.94C323.211 1172.63 380.095 1206.69 445.21 1206.69C521.589 1206.69 586.644 1159.83 611.272 1094.23C641.005 1104.67 673.395 1110.41 707.288 1110.41C779.257 1110.41 844.45 1084.55 891.813 1042.69C923.036 1062.66 960.473 1074.3 1000.72 1074.3C1043.23 1074.3 1082.6 1061.32 1114.82 1039.25C1149.74 1093.16 1211.73 1129.01 1282.38 1129.01C1354.1 1129.01 1416.89 1092.07 1451.5 1036.81C1497.44 1082.22 1561.53 1110.41 1632.42 1110.41C1700.75 1110.41 1762.74 1084.23 1808.27 1041.7C1835.89 1050.22 1864.42 1049.54 1889.72 1037.7C1952.74 1008.21 1971.92 920.583 1932.54 841.993C1922.51 821.963 1909.64 804.453 1894.99 789.967C1938.31 749.743 1957.24 688.428 1938.6 629.696C1929.41 600.754 1919.49 584.165 1904 576.256V775H-16V556.051Z" fill="#CFE7EA" fill-opacity="0.89"/>
</g>
<g filter="url(#filter2_f_1_2209)">
<path fill-rule="evenodd" clip-rule="evenodd" d="M-16 479.692H-804.877C-842.272 476.403 -857.674 489.021 -871.276 533.353C-887.746 587.031 -871.022 643.069 -832.754 679.832C-845.696 693.07 -857.064 709.073 -865.929 727.38C-900.71 799.207 -883.774 879.288 -828.102 906.247C-805.752 917.069 -780.557 917.685 -756.152 909.897C-715.939 948.773 -661.176 972.692 -600.826 972.692C-538.199 972.692 -481.588 946.933 -441.01 905.433C-410.436 955.937 -354.972 989.692 -291.625 989.692C-229.214 989.692 -174.456 956.928 -143.612 907.661C-115.146 927.835 -80.3709 939.692 -42.8261 939.692C-10.8765 939.692 19.0677 931.106 44.8247 916.115C81.7813 988.722 161.774 1039 254.5 1039C304.156 1039 350.16 1024.58 387.86 1000.04C409.453 1022.67 442.357 1034 486.5 1034C557.134 1026.19 579.795 996.31 587.066 950.95C617.272 973.755 653.307 987 692 987C763.612 987 826.115 941.632 859.425 874.256C920.61 869.7 971.965 829.851 993.202 775H-16V479.692Z" fill="#E0FAFF" fill-opacity="0.89"/>
</g>
<g filter="url(#filter3_f_1_2209)">
<path fill-rule="evenodd" clip-rule="evenodd" d="M730.181 775C732.226 817.278 751.794 853.731 785.9 870.247C808.25 881.069 833.445 881.685 857.85 873.897C898.063 912.773 952.826 936.692 1013.18 936.692C1075.8 936.692 1132.41 910.934 1172.99 869.433C1203.57 919.937 1259.03 953.692 1322.38 953.692C1384.79 953.692 1439.55 920.928 1470.39 871.661C1498.86 891.835 1533.63 903.692 1571.18 903.692C1606.73 903.692 1639.8 893.06 1667.38 874.8C1709.22 913.06 1766.8 936.692 1830.38 936.692C1860.32 936.692 1888.93 931.451 1915.19 921.91C1936.95 981.863 1994.41 1024.69 2061.88 1024.69C2119.4 1024.69 2169.64 993.564 2196.69 947.235C2230.75 982.363 2275.57 1003.69 2324.68 1003.69C2416.19 1003.69 2492.84 929.596 2512.68 830.164C2573.79 809.032 2617.68 750.987 2617.68 682.692C2617.68 642.637 2602.58 606.107 2577.77 578.483C2601.13 561.122 2614.77 539.186 2613.72 515.897C2611.43 464.711 2539.08 426.375 2452.13 430.273C2426.24 431.433 2401.97 436.208 2380.72 443.692H1904V775H730.181Z" fill="#F1FDFF" fill-opacity="0.89"/>
</g>
<g filter="url(#filter4_f_1_2209)">
<path fill-rule="evenodd" clip-rule="evenodd" d="M1666.75 647.711C1690.81 655.9 1718.28 661.124 1747.59 662.394C1846.03 666.658 1927.93 624.713 1930.53 568.707C1931.71 543.225 1916.27 519.223 1889.82 500.227C1917.91 470.002 1935 430.032 1935 386.205C1935 311.478 1885.32 247.968 1816.13 224.846C1793.67 116.051 1706.91 34.9775 1603.3 34.9775C1547.71 34.9775 1496.97 58.3154 1458.41 96.7514C1427.79 46.0596 1370.9 12 1305.79 12C1229.41 12 1164.36 58.8626 1139.73 124.462C1109.99 114.021 1077.6 108.287 1043.71 108.287C971.743 108.287 906.55 134.144 859.187 176.006C827.964 156.028 790.527 144.394 750.278 144.394C707.774 144.394 668.405 157.368 636.179 179.442C601.262 125.536 539.271 89.6858 468.616 89.6858C396.902 89.6858 334.113 126.619 299.5 181.879C253.562 136.471 189.474 108.287 118.576 108.287C50.2548 108.287 -11.7416 134.458 -57.2662 176.995C-84.894 168.474 -113.417 169.147 -138.719 180.989C-201.745 210.486 -220.917 298.109 -181.542 376.699C-171.507 396.729 -158.637 414.239 -143.986 428.725C-187.308 468.949 -206.24 530.265 -187.596 588.997C-172.197 637.503 -154.76 651.31 -112.426 647.711H1666.75Z" fill="#CFE7EA" fill-opacity="0.89"/>
</g>
<g filter="url(#filter5_f_1_2209)">
<path fill-rule="evenodd" clip-rule="evenodd" d="M-214.044 798C-235.297 805.485 -259.564 810.259 -285.455 811.42C-372.405 815.317 -444.752 776.982 -447.047 725.795C-448.091 702.507 -434.454 680.57 -411.09 663.21C-435.903 635.585 -451 599.056 -451 559C-451 490.705 -407.114 432.66 -346.004 411.528C-326.159 312.096 -249.518 238 -158 238C-108.898 238 -64.0785 259.329 -30.0159 294.457C-2.96637 248.128 47.281 217 104.799 217C172.266 217 229.731 259.829 251.486 319.783C277.75 310.241 306.361 305 336.299 305C399.872 305 457.459 328.633 499.296 366.892C526.876 348.633 559.947 338 595.5 338C633.045 338 667.82 349.857 696.286 370.031C727.129 320.764 781.888 288 844.299 288C907.646 288 963.109 321.755 993.684 372.259C1034.26 330.759 1090.87 305 1153.5 305C1213.85 305 1268.61 328.919 1308.83 367.795C1333.23 360.007 1358.43 360.623 1380.78 371.446C1436.45 398.404 1453.38 478.486 1418.6 550.313C1409.74 568.619 1398.37 584.622 1385.43 597.861C1423.7 634.623 1440.42 690.662 1423.95 744.339C1410.35 788.671 1394.95 801.289 1357.55 798H-214.044Z" fill="#E0FAFF" fill-opacity="0.89"/>
</g>
<g filter="url(#filter6_f_1_2209)">
<path fill-rule="evenodd" clip-rule="evenodd" d="M823.083 820C794.482 839.648 757.846 853.769 719.236 855.5C623.736 877.5 568.248 798.982 565.953 747.795C564.909 724.507 578.546 702.57 601.91 685.21C577.097 657.585 562 621.056 562 581C562 512.705 605.886 454.66 666.996 433.528C686.841 334.096 763.482 260 855 260C904.102 260 948.922 281.329 982.984 316.457C1010.03 270.128 1060.28 239 1117.8 239C1185.27 239 1242.73 281.829 1264.49 341.783C1290.75 332.241 1319.36 327 1349.3 327C1412.87 327 1470.46 350.633 1512.3 388.892C1539.88 370.633 1572.95 360 1608.5 360C1646.04 360 1680.82 371.857 1709.29 392.031C1740.13 342.764 1794.89 310 1857.3 310C1920.65 310 1976.11 343.755 2006.68 394.259C2047.26 352.759 2103.87 327 2166.5 327C2226.85 327 2281.61 350.919 2321.83 389.795C2346.23 382.007 2371.43 382.623 2393.78 393.446C2449.45 420.404 2466.38 500.486 2431.6 572.313C2422.74 590.619 2411.37 606.622 2398.43 619.861C2436.7 656.623 2453.42 712.662 2436.95 766.339C2423.35 810.671 2407.95 823.289 2370.55 820H823.083Z" fill="#F1FDFF" fill-opacity="0.89"/>
</g>
</g>
<defs>
<filter id="filter0_d_1_2209" x="-884.4" y="12" width="3522.48" height="1216.09" filterUnits="userSpaceOnUse" color-interpolation-filters="sRGB">
<feFlood flood-opacity="0" result="BackgroundImageFix"/>
<feColorMatrix in="SourceAlpha" type="matrix" values="0 0 0 0 0 0 0 0 0 0 0 0 0 0 0 0 0 0 127 0" result="hardAlpha"/>
<feOffset dx="10" dy="11"/>
<feGaussianBlur stdDeviation="5.2"/>
<feComposite in2="hardAlpha" operator="out"/>
<feColorMatrix type="matrix" values="0 0 0 0 0 0 0 0 0 0 0 0 0 0 0 0 0 0 0.25 0"/>
<feBlend mode="normal" in2="BackgroundImageFix" result="effect1_dropShadow_1_2209"/>
<feBlend mode="normal" in="SourceGraphic" in2="effect1_dropShadow_1_2209" result="shape"/>
</filter>
<filter id="filter1_f_1_2209" x="-196" y="544.051" width="2161" height="674.641" filterUnits="userSpaceOnUse" color-interpolation-filters="sRGB">
<feFlood flood-opacity="0" result="BackgroundImageFix"/>
<feBlend mode="normal" in="SourceGraphic" in2="BackgroundImageFix" result="shape"/>
<feGaussianBlur stdDeviation="6" result="effect1_foregroundBlur_1_2209"/>
</filter>
<filter id="filter2_f_1_2209" x="-894" y="469.198" width="1897.2" height="579.802" filterUnits="userSpaceOnUse" color-interpolation-filters="sRGB">
<feFlood flood-opacity="0" result="BackgroundImageFix"/>
<feBlend mode="normal" in="SourceGraphic" in2="BackgroundImageFix" result="shape"/>
<feGaussianBlur stdDeviation="5" result="effect1_foregroundBlur_1_2209"/>
</filter>
<filter id="filter3_f_1_2209" x="728.181" y="428" width="1891.5" height="598.692" filterUnits="userSpaceOnUse" color-interpolation-filters="sRGB">
<feFlood flood-opacity="0" result="BackgroundImageFix"/>
<feBlend mode="normal" in="SourceGraphic" in2="BackgroundImageFix" result="shape"/>
<feGaussianBlur stdDeviation="1" result="effect1_foregroundBlur_1_2209"/>
</filter>
<filter id="filter4_f_1_2209" x="-214" y="0" width="2161" height="674.692" filterUnits="userSpaceOnUse" color-interpolation-filters="sRGB">
<feFlood flood-opacity="0" result="BackgroundImageFix"/>
<feBlend mode="normal" in="SourceGraphic" in2="BackgroundImageFix" result="shape"/>
<feGaussianBlur stdDeviation="6" result="effect1_foregroundBlur_1_2209"/>
</filter>
<filter id="filter5_f_1_2209" x="-461" y="207" width="1907.67" height="614.692" filterUnits="userSpaceOnUse" color-interpolation-filters="sRGB">
<feFlood flood-opacity="0" result="BackgroundImageFix"/>
<feBlend mode="normal" in="SourceGraphic" in2="BackgroundImageFix" result="shape"/>
<feGaussianBlur stdDeviation="5" result="effect1_foregroundBlur_1_2209"/>
</filter>
<filter id="filter6_f_1_2209" x="560" y="237" width="1891.67" height="624.299" filterUnits="userSpaceOnUse" color-interpolation-filters="sRGB">
<feFlood flood-opacity="0" result="BackgroundImageFix"/>
<feBlend mode="normal" in="SourceGraphic" in2="BackgroundImageFix" result="shape"/>
<feGaussianBlur stdDeviation="1" result="effect1_foregroundBlur_1_2209"/>
</filter>
</defs>
</svg>
